<mxfile host="Electron" modified="2023-08-09T17:59:46.672Z" agent="Mozilla/5.0 (Windows NT 10.0; Win64; x64) AppleWebKit/537.36 (KHTML, like Gecko) draw.io/21.6.5 Chrome/114.0.5735.243 Electron/25.3.1 Safari/537.36" etag="wHNve8GrAw1hZO9CFWEI" version="21.6.5" type="device">
  <diagram id="AXCHEQVQRwccUmSOJsKf" name="Страница 1">
    <mxGraphModel dx="2643" dy="1182" grid="1" gridSize="10" guides="1" tooltips="1" connect="1" arrows="1" fold="1" page="1" pageScale="1" pageWidth="583" pageHeight="413" math="0" shadow="0">
      <root>
        <mxCell id="0" />
        <mxCell id="1" parent="0" />
        <mxCell id="zyT6X5N4wVizQlnWeRaa-424" value="" style="swimlane;startSize=0;hachureGap=4;fontFamily=Architects Daughter;fontSource=https%3A%2F%2Ffonts.googleapis.com%2Fcss%3Ffamily%3DArchitects%2BDaughter;fontSize=20;labelBackgroundColor=none;" parent="1" vertex="1">
          <mxGeometry x="-220" y="80" width="1140" height="80" as="geometry" />
        </mxCell>
        <mxCell id="zyT6X5N4wVizQlnWeRaa-428" value="img" style="ellipse;whiteSpace=wrap;html=1;aspect=fixed;" parent="zyT6X5N4wVizQlnWeRaa-424" vertex="1">
          <mxGeometry x="920" y="15" width="50" height="50" as="geometry" />
        </mxCell>
        <mxCell id="zyT6X5N4wVizQlnWeRaa-429" value="&lt;font style=&quot;font-size: 18px;&quot;&gt;Registered Name&lt;/font&gt;" style="text;html=1;align=center;verticalAlign=middle;resizable=0;points=[];autosize=1;strokeColor=none;fillColor=none;" parent="zyT6X5N4wVizQlnWeRaa-424" vertex="1">
          <mxGeometry x="970" y="20" width="160" height="40" as="geometry" />
        </mxCell>
        <mxCell id="zyT6X5N4wVizQlnWeRaa-430" value="" style="swimlane;startSize=0;" parent="zyT6X5N4wVizQlnWeRaa-424" vertex="1">
          <mxGeometry x="20" y="20" width="120" height="40" as="geometry" />
        </mxCell>
        <mxCell id="zyT6X5N4wVizQlnWeRaa-431" value="&lt;font style=&quot;font-size: 18px;&quot;&gt;Logo&lt;/font&gt;" style="text;html=1;align=center;verticalAlign=middle;resizable=0;points=[];autosize=1;strokeColor=none;fillColor=none;" parent="zyT6X5N4wVizQlnWeRaa-430" vertex="1">
          <mxGeometry x="30" width="60" height="40" as="geometry" />
        </mxCell>
        <mxCell id="zyT6X5N4wVizQlnWeRaa-425" value="&lt;font style=&quot;font-size: 18px;&quot;&gt;Header&lt;/font&gt;" style="text;html=1;align=center;verticalAlign=middle;resizable=0;points=[];autosize=1;strokeColor=none;fillColor=none;" parent="1" vertex="1">
          <mxGeometry x="300" width="80" height="40" as="geometry" />
        </mxCell>
        <mxCell id="zyT6X5N4wVizQlnWeRaa-426" value="" style="endArrow=classic;html=1;rounded=0;" parent="1" edge="1">
          <mxGeometry width="50" height="50" relative="1" as="geometry">
            <mxPoint x="345" y="40" as="sourcePoint" />
            <mxPoint x="344.65999999999997" y="70" as="targetPoint" />
          </mxGeometry>
        </mxCell>
        <mxCell id="zyT6X5N4wVizQlnWeRaa-434" value="" style="swimlane;startSize=0;" parent="1" vertex="1">
          <mxGeometry x="-220" y="80" width="220" height="640" as="geometry" />
        </mxCell>
        <mxCell id="zyT6X5N4wVizQlnWeRaa-436" value="" style="swimlane;startSize=0;" parent="zyT6X5N4wVizQlnWeRaa-434" vertex="1">
          <mxGeometry x="30" y="160" width="160" height="40" as="geometry" />
        </mxCell>
        <mxCell id="zyT6X5N4wVizQlnWeRaa-435" value="&lt;font style=&quot;font-size: 18px;&quot;&gt;Account&lt;/font&gt;" style="text;html=1;align=center;verticalAlign=middle;resizable=0;points=[];autosize=1;strokeColor=none;fillColor=none;" parent="zyT6X5N4wVizQlnWeRaa-436" vertex="1">
          <mxGeometry x="35" width="90" height="40" as="geometry" />
        </mxCell>
        <mxCell id="zyT6X5N4wVizQlnWeRaa-437" value="" style="swimlane;startSize=0;" parent="zyT6X5N4wVizQlnWeRaa-434" vertex="1">
          <mxGeometry x="30" y="240" width="160" height="40" as="geometry" />
        </mxCell>
        <mxCell id="zyT6X5N4wVizQlnWeRaa-438" value="&lt;font style=&quot;font-size: 18px;&quot;&gt;Profile&lt;/font&gt;" style="text;html=1;align=center;verticalAlign=middle;resizable=0;points=[];autosize=1;strokeColor=none;fillColor=none;" parent="zyT6X5N4wVizQlnWeRaa-437" vertex="1">
          <mxGeometry x="45" width="70" height="40" as="geometry" />
        </mxCell>
        <mxCell id="zyT6X5N4wVizQlnWeRaa-439" value="" style="swimlane;startSize=0;" parent="zyT6X5N4wVizQlnWeRaa-434" vertex="1">
          <mxGeometry x="30" y="320" width="160" height="40" as="geometry" />
        </mxCell>
        <mxCell id="zyT6X5N4wVizQlnWeRaa-440" value="&lt;font style=&quot;font-size: 18px;&quot;&gt;?&lt;/font&gt;" style="text;html=1;align=center;verticalAlign=middle;resizable=0;points=[];autosize=1;strokeColor=none;fillColor=none;" parent="zyT6X5N4wVizQlnWeRaa-439" vertex="1">
          <mxGeometry x="65" width="30" height="40" as="geometry" />
        </mxCell>
        <mxCell id="zyT6X5N4wVizQlnWeRaa-441" value="" style="swimlane;startSize=0;" parent="zyT6X5N4wVizQlnWeRaa-434" vertex="1">
          <mxGeometry x="30" y="560" width="160" height="40" as="geometry" />
        </mxCell>
        <mxCell id="zyT6X5N4wVizQlnWeRaa-442" value="&lt;font style=&quot;font-size: 18px;&quot;&gt;Log out&lt;/font&gt;" style="text;html=1;align=center;verticalAlign=middle;resizable=0;points=[];autosize=1;strokeColor=none;fillColor=none;" parent="zyT6X5N4wVizQlnWeRaa-441" vertex="1">
          <mxGeometry x="40" width="80" height="40" as="geometry" />
        </mxCell>
        <mxCell id="zyT6X5N4wVizQlnWeRaa-443" value="" style="swimlane;startSize=0;" parent="1" vertex="1">
          <mxGeometry y="160" width="920" height="560" as="geometry" />
        </mxCell>
        <mxCell id="H0zLnWFypGXkGgomi1Cp-34" value="" style="shape=flexArrow;endArrow=classic;html=1;rounded=0;" parent="zyT6X5N4wVizQlnWeRaa-443" edge="1">
          <mxGeometry width="50" height="50" relative="1" as="geometry">
            <mxPoint x="-30" y="100" as="sourcePoint" />
            <mxPoint x="140" y="100" as="targetPoint" />
          </mxGeometry>
        </mxCell>
        <mxCell id="H0zLnWFypGXkGgomi1Cp-35" value="" style="shape=flexArrow;endArrow=classic;html=1;rounded=0;" parent="zyT6X5N4wVizQlnWeRaa-443" edge="1">
          <mxGeometry width="50" height="50" relative="1" as="geometry">
            <mxPoint x="-30" y="179.57999999999998" as="sourcePoint" />
            <mxPoint x="140" y="179.57999999999998" as="targetPoint" />
          </mxGeometry>
        </mxCell>
        <mxCell id="zyT6X5N4wVizQlnWeRaa-444" value="" style="swimlane;startSize=0;" parent="1" vertex="1">
          <mxGeometry x="-220" y="720" width="1140" height="80" as="geometry" />
        </mxCell>
        <mxCell id="H0zLnWFypGXkGgomi1Cp-1" value="" style="swimlane;startSize=0;labelBackgroundColor=none;fillColor=#FFE45E;strokeColor=#FF6392;fontColor=#5AA9E6;" parent="zyT6X5N4wVizQlnWeRaa-444" vertex="1">
          <mxGeometry x="20" y="20" width="120" height="40" as="geometry" />
        </mxCell>
        <mxCell id="H0zLnWFypGXkGgomi1Cp-2" value="&lt;font color=&quot;#020405&quot;&gt;Home&lt;/font&gt;" style="text;html=1;align=center;verticalAlign=middle;resizable=0;points=[];autosize=1;fontSize=18;labelBackgroundColor=none;" parent="H0zLnWFypGXkGgomi1Cp-1" vertex="1">
          <mxGeometry x="25" width="70" height="40" as="geometry" />
        </mxCell>
        <mxCell id="H0zLnWFypGXkGgomi1Cp-3" value="" style="swimlane;startSize=0;labelBackgroundColor=none;" parent="zyT6X5N4wVizQlnWeRaa-444" vertex="1">
          <mxGeometry x="160" y="20" width="130" height="40" as="geometry" />
        </mxCell>
        <mxCell id="UxFcdmRMeXfnGf7D6X5o-1" value="&lt;font style=&quot;font-size: 18px;&quot;&gt;Market Insight&lt;/font&gt;" style="text;html=1;align=center;verticalAlign=middle;resizable=0;points=[];autosize=1;strokeColor=none;fillColor=none;" parent="H0zLnWFypGXkGgomi1Cp-3" vertex="1">
          <mxGeometry x="-10" width="140" height="40" as="geometry" />
        </mxCell>
        <mxCell id="H0zLnWFypGXkGgomi1Cp-4" value="" style="swimlane;startSize=0;labelBackgroundColor=none;" parent="zyT6X5N4wVizQlnWeRaa-444" vertex="1">
          <mxGeometry x="300" y="20" width="120" height="40" as="geometry" />
        </mxCell>
        <mxCell id="UxFcdmRMeXfnGf7D6X5o-2" value="&lt;font style=&quot;font-size: 18px;&quot;&gt;Statistics&lt;/font&gt;" style="text;html=1;align=center;verticalAlign=middle;resizable=0;points=[];autosize=1;strokeColor=none;fillColor=none;" parent="H0zLnWFypGXkGgomi1Cp-4" vertex="1">
          <mxGeometry x="10" width="100" height="40" as="geometry" />
        </mxCell>
        <mxCell id="H0zLnWFypGXkGgomi1Cp-5" value="" style="swimlane;startSize=0;labelBackgroundColor=none;" parent="zyT6X5N4wVizQlnWeRaa-444" vertex="1">
          <mxGeometry x="440" y="20" width="120" height="40" as="geometry" />
        </mxCell>
        <mxCell id="UxFcdmRMeXfnGf7D6X5o-3" value="&lt;font style=&quot;font-size: 18px;&quot;&gt;Analytics&lt;/font&gt;" style="text;html=1;align=center;verticalAlign=middle;resizable=0;points=[];autosize=1;strokeColor=none;fillColor=none;" parent="H0zLnWFypGXkGgomi1Cp-5" vertex="1">
          <mxGeometry x="15" width="100" height="40" as="geometry" />
        </mxCell>
        <mxCell id="H0zLnWFypGXkGgomi1Cp-6" value="" style="swimlane;startSize=0;labelBackgroundColor=none;" parent="zyT6X5N4wVizQlnWeRaa-444" vertex="1">
          <mxGeometry x="580" y="20" width="120" height="40" as="geometry" />
        </mxCell>
        <mxCell id="H0zLnWFypGXkGgomi1Cp-7" value="&lt;font color=&quot;#000000&quot;&gt;Contacts&lt;/font&gt;" style="text;html=1;align=center;verticalAlign=middle;resizable=0;points=[];autosize=1;fontSize=18;labelBackgroundColor=none;" parent="H0zLnWFypGXkGgomi1Cp-6" vertex="1">
          <mxGeometry x="15" width="90" height="40" as="geometry" />
        </mxCell>
        <mxCell id="H0zLnWFypGXkGgomi1Cp-8" value="" style="swimlane;startSize=0;" parent="zyT6X5N4wVizQlnWeRaa-444" vertex="1">
          <mxGeometry x="720" y="20" width="121" height="40" as="geometry" />
        </mxCell>
        <mxCell id="H0zLnWFypGXkGgomi1Cp-9" value="&lt;font color=&quot;#010203&quot; style=&quot;font-size: 18px;&quot;&gt;My Account&lt;/font&gt;" style="text;html=1;align=center;verticalAlign=middle;resizable=0;points=[];autosize=1;" parent="H0zLnWFypGXkGgomi1Cp-8" vertex="1">
          <mxGeometry x="1" width="120" height="40" as="geometry" />
        </mxCell>
        <mxCell id="H0zLnWFypGXkGgomi1Cp-10" value="" style="swimlane;startSize=0;" parent="zyT6X5N4wVizQlnWeRaa-444" vertex="1">
          <mxGeometry x="1000" y="20" width="120" height="40" as="geometry" />
        </mxCell>
        <mxCell id="H0zLnWFypGXkGgomi1Cp-11" value="&lt;font style=&quot;font-size: 18px;&quot;&gt;Logo&lt;/font&gt;" style="text;html=1;align=center;verticalAlign=middle;resizable=0;points=[];autosize=1;strokeColor=none;fillColor=none;" parent="H0zLnWFypGXkGgomi1Cp-10" vertex="1">
          <mxGeometry x="30" width="60" height="40" as="geometry" />
        </mxCell>
        <mxCell id="zyT6X5N4wVizQlnWeRaa-445" value="&lt;font style=&quot;font-size: 18px;&quot;&gt;Footer&lt;/font&gt;" style="text;html=1;align=center;verticalAlign=middle;resizable=0;points=[];autosize=1;strokeColor=none;fillColor=none;" parent="1" vertex="1">
          <mxGeometry x="335" y="827" width="80" height="40" as="geometry" />
        </mxCell>
        <mxCell id="zyT6X5N4wVizQlnWeRaa-446" value="" style="endArrow=classic;html=1;rounded=0;" parent="1" edge="1">
          <mxGeometry width="50" height="50" relative="1" as="geometry">
            <mxPoint x="374.65999999999997" y="835" as="sourcePoint" />
            <mxPoint x="374.65999999999997" y="805" as="targetPoint" />
          </mxGeometry>
        </mxCell>
        <mxCell id="H0zLnWFypGXkGgomi1Cp-12" value="" style="swimlane;startSize=0;" parent="1" vertex="1">
          <mxGeometry x="-190" y="880" width="560" height="480" as="geometry" />
        </mxCell>
        <mxCell id="H0zLnWFypGXkGgomi1Cp-13" value="&lt;font style=&quot;font-size: 18px;&quot;&gt;Account&lt;/font&gt;" style="text;html=1;align=center;verticalAlign=middle;resizable=0;points=[];autosize=1;strokeColor=none;fillColor=none;" parent="H0zLnWFypGXkGgomi1Cp-12" vertex="1">
          <mxGeometry x="235" width="90" height="40" as="geometry" />
        </mxCell>
        <mxCell id="H0zLnWFypGXkGgomi1Cp-14" value="" style="swimlane;startSize=0;" parent="H0zLnWFypGXkGgomi1Cp-12" vertex="1">
          <mxGeometry x="40" y="80" width="480" height="40" as="geometry" />
        </mxCell>
        <mxCell id="H0zLnWFypGXkGgomi1Cp-15" value="Email" style="text;html=1;align=center;verticalAlign=middle;resizable=0;points=[];autosize=1;strokeColor=none;fillColor=none;" parent="H0zLnWFypGXkGgomi1Cp-12" vertex="1">
          <mxGeometry x="40" y="40" width="50" height="30" as="geometry" />
        </mxCell>
        <mxCell id="H0zLnWFypGXkGgomi1Cp-16" value="" style="swimlane;startSize=0;" parent="H0zLnWFypGXkGgomi1Cp-12" vertex="1">
          <mxGeometry x="40" y="160" width="480" height="40" as="geometry" />
        </mxCell>
        <mxCell id="H0zLnWFypGXkGgomi1Cp-17" value="Current Password" style="text;html=1;align=center;verticalAlign=middle;resizable=0;points=[];autosize=1;strokeColor=none;fillColor=none;" parent="H0zLnWFypGXkGgomi1Cp-12" vertex="1">
          <mxGeometry x="40" y="130" width="120" height="30" as="geometry" />
        </mxCell>
        <mxCell id="H0zLnWFypGXkGgomi1Cp-19" value="" style="swimlane;startSize=0;" parent="H0zLnWFypGXkGgomi1Cp-12" vertex="1">
          <mxGeometry x="40" y="241" width="480" height="40" as="geometry" />
        </mxCell>
        <mxCell id="H0zLnWFypGXkGgomi1Cp-20" value="New Password" style="text;html=1;align=center;verticalAlign=middle;resizable=0;points=[];autosize=1;strokeColor=none;fillColor=none;" parent="H0zLnWFypGXkGgomi1Cp-12" vertex="1">
          <mxGeometry x="40" y="211" width="100" height="30" as="geometry" />
        </mxCell>
        <mxCell id="H0zLnWFypGXkGgomi1Cp-21" value="" style="swimlane;startSize=0;" parent="H0zLnWFypGXkGgomi1Cp-12" vertex="1">
          <mxGeometry x="40" y="321" width="480" height="40" as="geometry" />
        </mxCell>
        <mxCell id="H0zLnWFypGXkGgomi1Cp-22" value="Repeat New Password" style="text;html=1;align=center;verticalAlign=middle;resizable=0;points=[];autosize=1;strokeColor=none;fillColor=none;" parent="H0zLnWFypGXkGgomi1Cp-12" vertex="1">
          <mxGeometry x="40" y="291" width="150" height="30" as="geometry" />
        </mxCell>
        <mxCell id="H0zLnWFypGXkGgomi1Cp-24" value="" style="swimlane;startSize=0;labelBackgroundColor=none;" parent="H0zLnWFypGXkGgomi1Cp-12" vertex="1">
          <mxGeometry x="40" y="400" width="180" height="40" as="geometry" />
        </mxCell>
        <mxCell id="H0zLnWFypGXkGgomi1Cp-25" value="Update Account" style="text;html=1;align=center;verticalAlign=middle;resizable=0;points=[];autosize=1;strokeColor=none;fillColor=none;" parent="H0zLnWFypGXkGgomi1Cp-24" vertex="1">
          <mxGeometry x="30" y="5" width="110" height="30" as="geometry" />
        </mxCell>
        <mxCell id="H0zLnWFypGXkGgomi1Cp-26" value="" style="strokeWidth=2;html=1;shape=mxgraph.flowchart.annotation_1;align=left;pointerEvents=1;" parent="1" vertex="1">
          <mxGeometry x="-280" y="260" width="90" height="860" as="geometry" />
        </mxCell>
        <mxCell id="H0zLnWFypGXkGgomi1Cp-36" value="" style="swimlane;startSize=0;" parent="1" vertex="1">
          <mxGeometry x="400" y="880" width="520" height="480" as="geometry" />
        </mxCell>
        <mxCell id="H0zLnWFypGXkGgomi1Cp-37" value="&lt;font style=&quot;font-size: 18px;&quot;&gt;Profile&lt;/font&gt;" style="text;html=1;align=center;verticalAlign=middle;resizable=0;points=[];autosize=1;strokeColor=none;fillColor=none;" parent="H0zLnWFypGXkGgomi1Cp-36" vertex="1">
          <mxGeometry x="230" width="70" height="40" as="geometry" />
        </mxCell>
        <mxCell id="H0zLnWFypGXkGgomi1Cp-38" value="First Name" style="text;html=1;align=center;verticalAlign=middle;resizable=0;points=[];autosize=1;strokeColor=none;fillColor=none;" parent="H0zLnWFypGXkGgomi1Cp-36" vertex="1">
          <mxGeometry x="40" y="48" width="80" height="30" as="geometry" />
        </mxCell>
        <mxCell id="H0zLnWFypGXkGgomi1Cp-39" value="Last Name" style="text;html=1;align=center;verticalAlign=middle;resizable=0;points=[];autosize=1;strokeColor=none;fillColor=none;" parent="H0zLnWFypGXkGgomi1Cp-36" vertex="1">
          <mxGeometry x="280" y="48" width="80" height="30" as="geometry" />
        </mxCell>
        <mxCell id="H0zLnWFypGXkGgomi1Cp-41" value="" style="swimlane;startSize=0;" parent="H0zLnWFypGXkGgomi1Cp-36" vertex="1">
          <mxGeometry x="40" y="78" width="200" height="40" as="geometry" />
        </mxCell>
        <mxCell id="H0zLnWFypGXkGgomi1Cp-42" value="" style="swimlane;startSize=0;" parent="H0zLnWFypGXkGgomi1Cp-36" vertex="1">
          <mxGeometry x="280" y="78" width="200" height="40" as="geometry" />
        </mxCell>
        <mxCell id="H0zLnWFypGXkGgomi1Cp-43" value="" style="swimlane;startSize=0;" parent="H0zLnWFypGXkGgomi1Cp-36" vertex="1">
          <mxGeometry x="40" y="160" width="440" height="40" as="geometry" />
        </mxCell>
        <mxCell id="H0zLnWFypGXkGgomi1Cp-44" value="Address" style="text;html=1;align=center;verticalAlign=middle;resizable=0;points=[];autosize=1;strokeColor=none;fillColor=none;" parent="H0zLnWFypGXkGgomi1Cp-36" vertex="1">
          <mxGeometry x="40" y="130" width="70" height="30" as="geometry" />
        </mxCell>
        <mxCell id="H0zLnWFypGXkGgomi1Cp-47" value="" style="swimlane;startSize=0;" parent="H0zLnWFypGXkGgomi1Cp-36" vertex="1">
          <mxGeometry x="40" y="320" width="440" height="40" as="geometry" />
        </mxCell>
        <mxCell id="H0zLnWFypGXkGgomi1Cp-48" value="Telephone Number" style="text;html=1;align=center;verticalAlign=middle;resizable=0;points=[];autosize=1;strokeColor=none;fillColor=none;" parent="H0zLnWFypGXkGgomi1Cp-36" vertex="1">
          <mxGeometry x="40" y="290" width="120" height="30" as="geometry" />
        </mxCell>
        <mxCell id="H0zLnWFypGXkGgomi1Cp-49" value="" style="swimlane;startSize=0;labelBackgroundColor=none;" parent="H0zLnWFypGXkGgomi1Cp-36" vertex="1">
          <mxGeometry x="41" y="400" width="180" height="40" as="geometry" />
        </mxCell>
        <mxCell id="H0zLnWFypGXkGgomi1Cp-50" value="Update Profile" style="text;html=1;align=center;verticalAlign=middle;resizable=0;points=[];autosize=1;strokeColor=none;fillColor=none;" parent="H0zLnWFypGXkGgomi1Cp-49" vertex="1">
          <mxGeometry x="35" y="5" width="100" height="30" as="geometry" />
        </mxCell>
        <mxCell id="H0zLnWFypGXkGgomi1Cp-45" value="" style="swimlane;startSize=0;" parent="1" vertex="1">
          <mxGeometry x="440" y="1120" width="440" height="40" as="geometry" />
        </mxCell>
        <mxCell id="H0zLnWFypGXkGgomi1Cp-46" value="City" style="text;html=1;align=center;verticalAlign=middle;resizable=0;points=[];autosize=1;strokeColor=none;fillColor=none;" parent="1" vertex="1">
          <mxGeometry x="440" y="1088" width="40" height="30" as="geometry" />
        </mxCell>
        <mxCell id="H0zLnWFypGXkGgomi1Cp-51" value="" style="strokeWidth=2;html=1;shape=mxgraph.flowchart.annotation_1;align=left;pointerEvents=1;" parent="1" vertex="1">
          <mxGeometry x="-320" y="340" width="130" height="1060" as="geometry" />
        </mxCell>
        <mxCell id="H0zLnWFypGXkGgomi1Cp-53" value="" style="line;strokeWidth=2;html=1;" parent="1" vertex="1">
          <mxGeometry x="-190" y="1350" width="710" height="100" as="geometry" />
        </mxCell>
        <mxCell id="H0zLnWFypGXkGgomi1Cp-55" value="" style="endArrow=classic;html=1;rounded=0;" parent="1" edge="1">
          <mxGeometry width="50" height="50" relative="1" as="geometry">
            <mxPoint x="520" y="1400" as="sourcePoint" />
            <mxPoint x="520" y="1360" as="targetPoint" />
          </mxGeometry>
        </mxCell>
      </root>
    </mxGraphModel>
  </diagram>
</mxfile>
